# xmcd
#
# Track frame offsets:
#	150
#	22289
#	36336
#	71565
#	86281
#	99147
#	120691
#	141451
#	162940
#	176536
#	192511
#
# Disc length: 2738 seconds
#
# Revision: 1
# Processed by: cddbd v1.4PL0 Copyright (c) Steve Scherf et al.
# Submitted via: audiograbber 1.81.02
#
DISCID=970ab00b
DTITLE=Autumn Blues Band - Wie Jetz
DYEAR=1998
DGENRE=
TTITLE0=I`ve Got The Blues
TTITLE1=Liebeslied
TTITLE2=Nothing Is Esy
TTITLE3=Kaufrausch
TTITLE4=That`s All Rock`n Roll
TTITLE5=Helmut
TTITLE6=Mountain Boogie
TTITLE7=Telefon
TTITLE8=I Feel Good
TTITLE9=Godfather Blues
TTITLE10=Boulevard Rio
EXTD=
EXTT0=
EXTT1=
EXTT2=
EXTT3=
EXTT4=
EXTT5=
EXTT6=
EXTT7=
EXTT8=
EXTT9=
EXTT10=
PLAYORDER=
